<svg width="35" height="35" viewBox="0 0 35 35" fill="none" xmlns="http://www.w3.org/2000/svg">
<g clip-path="url(#clip0_967_880)">
<mask id="mask0_967_880" style="mask-type:luminance" maskUnits="userSpaceOnUse" x="0" y="0" width="35" height="35">
<path d="M35 0H0V35H35V0Z" fill="white"/>
</mask>
<g mask="url(#mask0_967_880)">
<path d="M5.67383 28.0273C5.67383 28.6198 5.97005 28.916 6.5625 28.916H12.0996C12.6921 28.916 12.9883 28.6198 12.9883 28.0273V18.3887C12.9883 17.7734 13.2161 17.2607 13.6719 16.8506L17.2266 13.6377C17.7734 13.1364 18.3203 13.1364 18.8672 13.6377L22.4219 16.8506C22.8776 17.2607 23.1055 17.7734 23.1055 18.3887V28.0273C23.1055 28.6198 23.4017 28.916 23.9941 28.916H29.5312C30.1237 28.916 30.4199 28.6198 30.4199 28.0273V15.3125C30.4199 14.6745 30.1807 14.1504 29.7021 13.7402L19.0381 4.13574C18.3773 3.54329 17.7165 3.54329 17.0557 4.13574L6.3916 13.7402C5.91309 14.1504 5.67383 14.6745 5.67383 15.3125V28.0273Z" fill="#082567"/>
</g>
<path d="M21 21.5C21 20.5 20.5 19.2773 19 19.2773H18H17C15.5 19.2773 15 20.4806 15 21.5V28.0273C15 28.6198 15.2962 28.916 15.8887 28.916H20.1113C20.7038 28.916 21 28.6198 21 28.0273V21.5Z" fill="#082567"/>
</g>
<defs>
<clipPath id="clip0_967_880">
<rect width="35" height="35" fill="white"/>
</clipPath>
</defs>
</svg>
